<svg width="2195" height="2195" viewBox="0 0 2195 2195" fill="none" xmlns="http://www.w3.org/2000/svg">
<rect x="0.5" y="0.5" width="2194" height="2194" rx="446.5" fill="black" stroke="black" stroke-linejoin="round"/>
<g filter="url(#filter0_d_10_473)">
<path fill-rule="evenodd" clip-rule="evenodd" d="M1388.68 377H1818L1615.85 665H1186.88L1388.68 377ZM1449.96 456H1644.24L1552.76 586H1358.64L1449.96 456Z" fill="white"/>
<path d="M1818 377L1820.05 378.436C1820.58 377.673 1820.65 376.675 1820.22 375.847C1819.79 375.019 1818.93 374.5 1818 374.5V377ZM1388.68 377V374.5C1387.86 374.5 1387.1 374.898 1386.63 375.565L1388.68 377ZM1615.85 665V667.5C1616.66 667.5 1617.42 667.103 1617.89 666.436L1615.85 665ZM1186.88 665L1184.83 663.565C1184.29 664.329 1184.23 665.327 1184.66 666.154C1185.09 666.981 1185.94 667.5 1186.88 667.5V665ZM1644.24 456L1646.29 457.439C1646.82 456.675 1646.89 455.677 1646.46 454.848C1646.03 454.02 1645.17 453.5 1644.24 453.5V456ZM1449.96 456V453.5C1449.15 453.5 1448.38 453.897 1447.91 454.563L1449.96 456ZM1552.76 586V588.5C1553.57 588.5 1554.34 588.104 1554.8 587.439L1552.76 586ZM1358.64 586L1356.59 584.563C1356.06 585.326 1355.99 586.325 1356.42 587.153C1356.85 587.981 1357.7 588.5 1358.64 588.5V586ZM1818 374.5H1388.68V379.5H1818V374.5ZM1617.89 666.436L1820.05 378.436L1815.95 375.564L1613.8 663.564L1617.89 666.436ZM1186.88 667.5H1615.85V662.5H1186.88V667.5ZM1386.63 375.565L1184.83 663.565L1188.92 666.435L1390.73 378.435L1386.63 375.565ZM1644.24 453.5H1449.96V458.5H1644.24V453.5ZM1554.8 587.439L1646.29 457.439L1642.2 454.561L1550.72 584.561L1554.8 587.439ZM1358.64 588.5H1552.76V583.5H1358.64V588.5ZM1447.91 454.563L1356.59 584.563L1360.68 587.437L1452.01 457.437L1447.91 454.563Z" fill="black"/>
</g>
<g filter="url(#filter1_d_10_473)">
<path fill-rule="evenodd" clip-rule="evenodd" d="M983.242 954H1412.56L1210.41 1242H781.438L983.242 954ZM1044.52 1033H1238.8L1147.32 1163H953.2L1044.52 1033Z" fill="white"/>
<path d="M1412.56 954L1414.61 955.436C1415.14 954.673 1415.21 953.675 1414.78 952.847C1414.35 952.019 1413.5 951.5 1412.56 951.5V954ZM983.242 954V951.5C982.426 951.5 981.662 951.898 981.194 952.565L983.242 954ZM1210.41 1242V1244.5C1211.22 1244.5 1211.99 1244.1 1212.46 1243.44L1210.41 1242ZM781.438 1242L779.391 1240.57C778.856 1241.33 778.79 1242.33 779.221 1243.15C779.651 1243.98 780.506 1244.5 781.438 1244.5V1242ZM1238.8 1033L1240.85 1034.44C1241.39 1033.68 1241.45 1032.68 1241.02 1031.85C1240.59 1031.02 1239.74 1030.5 1238.8 1030.5V1033ZM1044.52 1033V1030.5C1043.71 1030.5 1042.94 1030.9 1042.48 1031.56L1044.52 1033ZM1147.32 1163V1165.5C1148.14 1165.5 1148.9 1165.1 1149.37 1164.44L1147.32 1163ZM953.2 1163L951.154 1161.56C950.618 1162.33 950.551 1163.32 950.982 1164.15C951.412 1164.98 952.267 1165.5 953.2 1165.5V1163ZM1412.56 951.5H983.242V956.5H1412.56V951.5ZM1212.46 1243.44L1414.61 955.436L1410.52 952.564L1208.36 1240.56L1212.46 1243.44ZM781.438 1244.5H1210.41V1239.5H781.438V1244.5ZM981.194 952.565L779.391 1240.57L783.486 1243.43L985.289 955.435L981.194 952.565ZM1238.8 1030.5H1044.52V1035.5H1238.8V1030.5ZM1149.37 1164.44L1240.85 1034.44L1236.76 1031.56L1145.28 1161.56L1149.37 1164.44ZM953.2 1165.5H1147.32V1160.5H953.2V1165.5ZM1042.48 1031.56L951.154 1161.56L955.246 1164.44L1046.57 1034.44L1042.48 1031.56Z" fill="black"/>
</g>
<g filter="url(#filter2_d_10_473)">
<path fill-rule="evenodd" clip-rule="evenodd" d="M578.803 1531H1008.12L805.971 1819H377L578.803 1531ZM640.084 1610H834.365L742.884 1740H548.762L640.084 1610Z" fill="white"/>
<path d="M1008.12 1531L1010.17 1532.44C1010.71 1531.67 1010.77 1530.67 1010.34 1529.85C1009.91 1529.02 1009.06 1528.5 1008.12 1528.5V1531ZM578.803 1531V1528.5C577.988 1528.5 577.224 1528.9 576.756 1529.57L578.803 1531ZM805.971 1819V1821.5C806.785 1821.5 807.549 1821.1 808.017 1820.44L805.971 1819ZM377 1819L374.953 1817.57C374.418 1818.33 374.352 1819.33 374.782 1820.15C375.213 1820.98 376.068 1821.5 377 1821.5V1819ZM834.365 1610L836.41 1611.44C836.947 1610.68 837.014 1609.68 836.584 1608.85C836.154 1608.02 835.299 1607.5 834.365 1607.5V1610ZM640.084 1610V1607.5C639.27 1607.5 638.506 1607.9 638.038 1608.56L640.084 1610ZM742.884 1740V1742.5C743.698 1742.5 744.461 1742.1 744.929 1741.44L742.884 1740ZM548.762 1740L546.716 1738.56C546.18 1739.33 546.113 1740.32 546.543 1741.15C546.973 1741.98 547.829 1742.5 548.762 1742.5V1740ZM1008.12 1528.5H578.803V1533.5H1008.12V1528.5ZM808.017 1820.44L1010.17 1532.44L1006.08 1529.56L803.924 1817.56L808.017 1820.44ZM377 1821.5H805.971V1816.5H377V1821.5ZM576.756 1529.57L374.953 1817.57L379.047 1820.43L580.851 1532.43L576.756 1529.57ZM834.365 1607.5H640.084V1612.5H834.365V1607.5ZM744.929 1741.44L836.41 1611.44L832.321 1608.56L740.84 1738.56L744.929 1741.44ZM548.762 1742.5H742.884V1737.5H548.762V1742.5ZM638.038 1608.56L546.716 1738.56L550.807 1741.44L642.13 1611.44L638.038 1608.56Z" fill="black"/>
</g>
<path d="M1348.33 665L1145.93 954H1258.09L1460.5 665H1348.33Z" fill="white" stroke="black" stroke-width="5" stroke-linejoin="round"/>
<path d="M942.541 1242L739.497 1531H852.015L1055.06 1242H942.541Z" fill="white" stroke="black" stroke-width="5" stroke-linejoin="round"/>
<g filter="url(#filter3_d_10_473)">
<path d="M1237.81 1033H1044.2L953.2 1163H1146.64L1237.81 1033Z" stroke="black" stroke-width="5" stroke-linejoin="round" shape-rendering="crispEdges"/>
</g>
<defs>
<filter id="filter0_d_10_473" x="1180.38" y="374.5" width="644.124" height="301" filterUnits="userSpaceOnUse" color-interpolation-filters="sRGB">
<feFlood flood-opacity="0" result="BackgroundImageFix"/>
<feColorMatrix in="SourceAlpha" type="matrix" values="0 0 0 0 0 0 0 0 0 0 0 0 0 0 0 0 0 0 127 0" result="hardAlpha"/>
<feOffset dy="4"/>
<feGaussianBlur stdDeviation="2"/>
<feComposite in2="hardAlpha" operator="out"/>
<feColorMatrix type="matrix" values="0 0 0 0 0 0 0 0 0 0 0 0 0 0 0 0 0 0 0.25 0"/>
<feBlend mode="normal" in2="BackgroundImageFix" result="effect1_dropShadow_10_473"/>
<feBlend mode="normal" in="SourceGraphic" in2="effect1_dropShadow_10_473" result="shape"/>
</filter>
<filter id="filter1_d_10_473" x="774.938" y="951.5" width="644.124" height="301" filterUnits="userSpaceOnUse" color-interpolation-filters="sRGB">
<feFlood flood-opacity="0" result="BackgroundImageFix"/>
<feColorMatrix in="SourceAlpha" type="matrix" values="0 0 0 0 0 0 0 0 0 0 0 0 0 0 0 0 0 0 127 0" result="hardAlpha"/>
<feOffset dy="4"/>
<feGaussianBlur stdDeviation="2"/>
<feComposite in2="hardAlpha" operator="out"/>
<feColorMatrix type="matrix" values="0 0 0 0 0 0 0 0 0 0 0 0 0 0 0 0 0 0 0.25 0"/>
<feBlend mode="normal" in2="BackgroundImageFix" result="effect1_dropShadow_10_473"/>
<feBlend mode="normal" in="SourceGraphic" in2="effect1_dropShadow_10_473" result="shape"/>
</filter>
<filter id="filter2_d_10_473" x="370.5" y="1528.5" width="644.124" height="301" filterUnits="userSpaceOnUse" color-interpolation-filters="sRGB">
<feFlood flood-opacity="0" result="BackgroundImageFix"/>
<feColorMatrix in="SourceAlpha" type="matrix" values="0 0 0 0 0 0 0 0 0 0 0 0 0 0 0 0 0 0 127 0" result="hardAlpha"/>
<feOffset dy="4"/>
<feGaussianBlur stdDeviation="2"/>
<feComposite in2="hardAlpha" operator="out"/>
<feColorMatrix type="matrix" values="0 0 0 0 0 0 0 0 0 0 0 0 0 0 0 0 0 0 0.25 0"/>
<feBlend mode="normal" in2="BackgroundImageFix" result="effect1_dropShadow_10_473"/>
<feBlend mode="normal" in="SourceGraphic" in2="effect1_dropShadow_10_473" result="shape"/>
</filter>
<filter id="filter3_d_10_473" x="946.7" y="1030.5" width="297.605" height="143" filterUnits="userSpaceOnUse" color-interpolation-filters="sRGB">
<feFlood flood-opacity="0" result="BackgroundImageFix"/>
<feColorMatrix in="SourceAlpha" type="matrix" values="0 0 0 0 0 0 0 0 0 0 0 0 0 0 0 0 0 0 127 0" result="hardAlpha"/>
<feOffset dy="4"/>
<feGaussianBlur stdDeviation="2"/>
<feComposite in2="hardAlpha" operator="out"/>
<feColorMatrix type="matrix" values="0 0 0 0 0 0 0 0 0 0 0 0 0 0 0 0 0 0 0.25 0"/>
<feBlend mode="normal" in2="BackgroundImageFix" result="effect1_dropShadow_10_473"/>
<feBlend mode="normal" in="SourceGraphic" in2="effect1_dropShadow_10_473" result="shape"/>
</filter>
</defs>
</svg>
